<svg xmlns="http://www.w3.org/2000/svg" width="256" height="320" viewBox="0 0 256 320" role="img" aria-labelledby="title description">
  <title id="title">Kora vertical infinity loop</title>
  <desc id="description">A free-standing, softly squared vertical infinity ribbon using Kora's constellation state colours.</desc>
  <defs>
    <linearGradient id="state-spectrum" x1="0" y1="0" x2="0" y2="1">
      <stop offset="0" stop-color="#F49C9C" />
      <stop offset="0.18" stop-color="#F0CC83" />
      <stop offset="0.34" stop-color="#9BDFAC" />
      <stop offset="0.49" stop-color="#6AE1DA" />
      <stop offset="0.60" stop-color="#B8D9EC" />
      <stop offset="0.77" stop-color="#80B7FF" />
      <stop offset="1" stop-color="#AF9BFF" />
    </linearGradient>
  </defs>
  <path
      d="M128 28 C78 28 52 49 52 88 C52 119 79 141 128 160 C177 179 204 201 204 232 C204 271 178 292 128 292 C78 292 52 271 52 232 C52 201 79 179 128 160 C177 141 204 119 204 88 C204 49 178 28 128 28"
      fill="none"
      stroke="url(#state-spectrum)"
      stroke-linecap="round"
      stroke-linejoin="round"
      stroke-width="27" />
  <path
      d="M128 28 C78 28 52 49 52 88 C52 119 79 141 128 160 C177 179 204 201 204 232 C204 271 178 292 128 292 C78 292 52 271 52 232 C52 201 79 179 128 160 C177 141 204 119 204 88 C204 49 178 28 128 28"
      fill="none"
      opacity="0.16"
      stroke="#FFFFFF"
      stroke-linecap="round"
      stroke-linejoin="round"
      stroke-width="5" />
</svg>
